<svg width="227" height="19" viewBox="0 0 227 19" fill="none" xmlns="http://www.w3.org/2000/svg">
<path d="M11.225 18L7.85 13.125H7.65H4.125V18H0.0750001V0.499999H7.65C9.2 0.499999 10.5417 0.758332 11.675 1.275C12.825 1.79167 13.7083 2.525 14.325 3.475C14.9417 4.425 15.25 5.55 15.25 6.85C15.25 8.15 14.9333 9.275 14.3 10.225C13.6833 11.1583 12.8 11.875 11.65 12.375L15.575 18H11.225ZM11.15 6.85C11.15 5.86667 10.8333 5.11667 10.2 4.6C9.56667 4.06667 8.64167 3.8 7.425 3.8H4.125V9.9H7.425C8.64167 9.9 9.56667 9.63333 10.2 9.1C10.8333 8.56667 11.15 7.81667 11.15 6.85ZM32.0088 14.75V18H18.4588V0.499999H31.6838V3.75H22.4838V7.55H30.6088V10.7H22.4838V14.75H32.0088ZM46.7563 14.25H38.6313L37.0813 18H32.9312L40.7313 0.499999H44.7313L52.5563 18H48.3063L46.7563 14.25ZM45.4813 11.175L42.7063 4.475L39.9313 11.175H45.4813ZM62.5027 18.3C60.7194 18.3 59.1027 17.9167 57.6527 17.15C56.2194 16.3667 55.0861 15.2917 54.2527 13.925C53.4361 12.5417 53.0277 10.9833 53.0277 9.25C53.0277 7.51667 53.4361 5.96667 54.2527 4.6C55.0861 3.21667 56.2194 2.14167 57.6527 1.375C59.1027 0.591666 60.7277 0.2 62.5277 0.2C64.0444 0.2 65.4111 0.466666 66.6277 1C67.8611 1.53333 68.8944 2.3 69.7277 3.3L67.1277 5.7C65.9444 4.33333 64.4777 3.65 62.7277 3.65C61.6444 3.65 60.6777 3.89167 59.8277 4.375C58.9777 4.84167 58.3111 5.5 57.8277 6.35C57.3611 7.2 57.1277 8.16667 57.1277 9.25C57.1277 10.3333 57.3611 11.3 57.8277 12.15C58.3111 13 58.9777 13.6667 59.8277 14.15C60.6777 14.6167 61.6444 14.85 62.7277 14.85C64.4777 14.85 65.9444 14.1583 67.1277 12.775L69.7277 15.175C68.8944 16.1917 67.8611 16.9667 66.6277 17.5C65.3944 18.0333 64.0194 18.3 62.5027 18.3ZM75.9168 3.8H70.3168V0.499999H85.5668V3.8H79.9668V18H75.9168V3.8ZM121.276 0.499999L115.551 18H111.201L107.351 6.15L103.376 18H99.051L93.301 0.499999H97.501L101.451 12.8L105.576 0.499999H109.326L113.326 12.9L117.401 0.499999H121.276ZM137.087 14.75V18H123.537V0.499999H136.762V3.75H127.562V7.55H135.687V10.7H127.562V14.75H137.087ZM151.834 14.25H143.709L142.159 18H138.009L145.809 0.499999H149.809L157.634 18H153.384L151.834 14.25ZM150.559 11.175L147.784 4.475L145.009 11.175H150.559ZM162.196 3.8H156.596V0.499999H171.846V3.8H166.246V18H162.196V3.8ZM190.075 0.499999V18H186.025V10.825H178.075V18H174.025V0.499999H178.075V7.4H186.025V0.499999H190.075ZM207.766 14.75V18H194.216V0.499999H207.441V3.75H198.241V7.55H206.366V10.7H198.241V14.75H207.766ZM222.138 18L218.763 13.125H218.563H215.038V18H210.988V0.499999H218.563C220.113 0.499999 221.455 0.758332 222.588 1.275C223.738 1.79167 224.621 2.525 225.238 3.475C225.855 4.425 226.163 5.55 226.163 6.85C226.163 8.15 225.846 9.275 225.213 10.225C224.596 11.1583 223.713 11.875 222.563 12.375L226.488 18H222.138ZM222.063 6.85C222.063 5.86667 221.746 5.11667 221.113 4.6C220.48 4.06667 219.555 3.8 218.338 3.8H215.038V9.9H218.338C219.555 9.9 220.48 9.63333 221.113 9.1C221.746 8.56667 222.063 7.81667 222.063 6.85Z" fill="#4793FF"/>
</svg>
